{
  "accessors": [
    {
      "bufferView": 2,
      "componentType": 5126,
      "count": 48160,
      "max": [
        84.661567687988281,
        -12.497943878173828,
        79.606575012207031
      ],
      "min": [
        -85.163856506347656,
        -19.184623718261719,
        25.894161224365234
      ],
      "type": "VEC3"
    },
    {
      "bufferView": 2,
      "byteOffset": 577920,
      "componentType": 5126,
      "count": 48160,
      "max": [
        1,
        1,
        1
      ],
      "min": [
        -1,
        -1,
        -1
      ],
      "type": "VEC3"
    },
    {
      "bufferView": 3,
      "componentType": 5126,
      "count": 48160,
      "max": [
        1,
        1,
        0.89342498779296875,
        1
      ],
      "min": [
        -0.8896714448928833,
        -0.8603520393371582,
        -0.86745887994766235,
        -1
      ],
      "type": "VEC4"
    },
    {
      "bufferView": 1,
      "componentType": 5126,
      "count": 48160,
      "max": [
        2.4990189075469971,
        1.1080019474029541
      ],
      "min": [
        -1.5009750127792358,
        -0.15493500232696533
      ],
      "type": "VEC2"
    },
    {
      "bufferView": 0,
      "componentType": 5125,
      "count": 171912,
      "max": [
        48159
      ],
      "min": [
        0
      ],
      "type": "SCALAR"
    },
    {
      "bufferView": 2,
      "byteOffset": 1155840,
      "componentType": 5126,
      "count": 492,
      "max": [
        74.856788635253906,
        32.002056121826172,
        91.199958801269531
      ],
      "min": [
        -74.743217468261719,
        25.502058029174805,
        87.799964904785156
      ],
      "type": "VEC3"
    },
    {
      "bufferView": 2,
      "byteOffset": 1161744,
      "componentType": 5126,
      "count": 492,
      "max": [
        1,
        1,
        1
      ],
      "min": [
        -1,
        -1,
        -1
      ],
      "type": "VEC3"
    },
    {
      "bufferView": 0,
      "byteOffset": 687648,
      "componentType": 5125,
      "count": 1296,
      "max": [
        491
      ],
      "min": [
        0
      ],
      "type": "SCALAR"
    },
    {
      "bufferView": 2,
      "byteOffset": 1167648,
      "componentType": 5126,
      "count": 8,
      "max": [
        0.069155998528003693,
        -12.797943115234375,
        20.095653533935547
      ],
      "min": [
        -0.069155998528003693,
        -12.911812782287598,
        12.365959167480469
      ],
      "type": "VEC3"
    },
    {
      "bufferView": 1,
      "byteOffset": 385280,
      "componentType": 5126,
      "count": 8,
      "max": [
        0,
        0
      ],
      "min": [
        0,
        0
      ],
      "type": "VEC2"
    },
    {
      "bufferView": 0,
      "byteOffset": 692832,
      "componentType": 5125,
      "count": 10,
      "max": [
        7
      ],
      "min": [
        0
      ],
      "type": "SCALAR"
    },
    {
      "bufferView": 2,
      "byteOffset": 1167744,
      "componentType": 5126,
      "count": 13246,
      "max": [
        94.99786376953125,
        31.202056884765625,
        93.599960327148438
      ],
      "min": [
        -94.99786376953125,
        -16.862586975097656,
        -0
      ],
      "type": "VEC3"
    },
    {
      "bufferView": 2,
      "byteOffset": 1326696,
      "componentType": 5126,
      "count": 13246,
      "max": [
        1,
        1,
        1
      ],
      "min": [
        -1,
        -1,
        -1
      ],
      "type": "VEC3"
    },
    {
      "bufferView": 3,
      "byteOffset": 770560,
      "componentType": 5126,
      "count": 13246,
      "max": [
        1,
        1,
        1,
        1
      ],
      "min": [
        -1,
        -1,
        -1,
        -1
      ],
      "type": "VEC4"
    },
    {
      "bufferView": 1,
      "byteOffset": 385344,
      "componentType": 5126,
      "count": 13246,
      "max": [
        0.99728602170944214,
        0.99749702215194702
      ],
      "min": [
        0.002503999974578619,
        0.0025049999821931124
      ],
      "type": "VEC2"
    },
    {
      "bufferView": 0,
      "byteOffset": 692872,
      "componentType": 5125,
      "count": 43959,
      "max": [
        13245
      ],
      "min": [
        0
      ],
      "type": "SCALAR"
    }
  ],
  "asset": {
    "extras": {
      "author": "Interiors3D (https://sketchfab.com/Interiors3D)",
      "license": "CC-BY-4.0 (http://creativecommons.org/licenses/by/4.0/)",
      "source": "https://sketchfab.com/3d-models/ppbd00-647e006a5fc349269a0236e99122903b",
      "title": "PPBD00"
    },
    "generator": "Sketchfab-10.9.0",
    "version": "2.0"
  },
  "bufferViews": [
    {
      "buffer": 0,
      "byteLength": 868708,
      "byteOffset": 0,
      "name": "floatBufferViews",
      "target": 34963
    },
    {
      "buffer": 0,
      "byteLength": 491312,
      "byteOffset": 868708,
      "byteStride": 8,
      "name": "floatBufferViews",
      "target": 34962
    },
    {
      "buffer": 0,
      "byteLength": 1485648,
      "byteOffset": 1360020,
      "byteStride": 12,
      "name": "floatBufferViews",
      "target": 34962
    },
    {
      "buffer": 0,
      "byteLength": 982496,
      "byteOffset": 2845668,
      "byteStride": 16,
      "name": "floatBufferViews",
      "target": 34962
    }
  ],
  "buffers": [
    {
      "byteLength": 3828164,
      "uri": "scene.bin"
    }
  ],
  "images": [
    {
      "uri": "textures/Metal_baseColor.jpeg"
    },
    {
      "uri": "textures/Metal_metallicRoughness.png"
    },
    {
      "uri": "textures/Metal_normal.png"
    },
    {
      "uri": "textures/Painted_wood_baseColor.jpeg"
    },
    {
      "uri": "textures/Painted_wood_metallicRoughness.png"
    },
    {
      "uri": "textures/Painted_wood_normal.png"
    }
  ],
  "materials": [
    {
      "doubleSided": true,
      "name": "Metal",
      "normalTexture": {
        "index": 2,
        "scale": 1,
        "texCoord": 0
      },
      "pbrMetallicRoughness": {
        "baseColorFactor": [
          1,
          1,
          1,
          1
        ],
        "baseColorTexture": {
          "index": 0,
          "texCoord": 0
        },
        "metallicFactor": 1,
        "metallicRoughnessTexture": {
          "index": 1,
          "texCoord": 0
        },
        "roughnessFactor": 1
      }
    },
    {
      "doubleSided": true,
      "name": "Metal2",
      "pbrMetallicRoughness": {
        "baseColorFactor": [
          0.401978,
          0.401978,
          0.401978,
          1
        ],
        "metallicFactor": 1,
        "roughnessFactor": 0.22899878254809039
      }
    },
    {
      "doubleSided": true,
      "name": "Painted_wood",
      "normalTexture": {
        "index": 5,
        "scale": 1,
        "texCoord": 0
      },
      "pbrMetallicRoughness": {
        "baseColorFactor": [
          0.90000000000000002,
          0.90000000000000002,
          0.90000000000000002,
          1
        ],
        "baseColorTexture": {
          "index": 3,
          "texCoord": 0
        },
        "metallicFactor": 0,
        "metallicRoughnessTexture": {
          "index": 4,
          "texCoord": 0
        },
        "roughnessFactor": 1
      }
    }
  ],
  "meshes": [
    {
      "primitives": [
        {
          "attributes": {
            "NORMAL": 1,
            "POSITION": 0,
            "TANGENT": 2,
            "TEXCOORD_0": 3
          },
          "indices": 4,
          "material": 0,
          "mode": 4
        }
      ]
    },
    {
      "primitives": [
        {
          "attributes": {
            "NORMAL": 6,
            "POSITION": 5
          },
          "indices": 7,
          "material": 1,
          "mode": 4
        }
      ]
    },
    {
      "primitives": [
        {
          "attributes": {
            "POSITION": 8,
            "TEXCOORD_0": 9
          },
          "indices": 10,
          "material": 2,
          "mode": 1
        }
      ]
    },
    {
      "primitives": [
        {
          "attributes": {
            "NORMAL": 12,
            "POSITION": 11,
            "TANGENT": 13,
            "TEXCOORD_0": 14
          },
          "indices": 15,
          "material": 2,
          "mode": 4
        }
      ]
    }
  ],
  "nodes": [
    {
      "children": [
        1
      ],
      "name": "RootNode (gltf orientation matrix)",
      "rotation": [
        -0.70710678118654746,
        -0,
        -0,
        0.70710678118654757
      ]
    },
    {
      "children": [
        2
      ],
      "name": "RootNode (model correction matrix)"
    },
    {
      "children": [
        3,
        4,
        5,
        6
      ],
      "name": "W02 - PPBD00 - Sketchfab - mesh.obj.cleaner.materialmerger.gles"
    },
    {
      "mesh": 0,
      "name": ""
    },
    {
      "mesh": 1,
      "name": ""
    },
    {
      "mesh": 2,
      "name": ""
    },
    {
      "mesh": 3,
      "name": ""
    }
  ],
  "samplers": [
    {
      "magFilter": 9729,
      "minFilter": 9987,
      "wrapS": 10497,
      "wrapT": 10497
    }
  ],
  "scene": 0,
  "scenes": [
    {
      "name": "OSG_Scene",
      "nodes": [
        0
      ]
    }
  ],
  "textures": [
    {
      "sampler": 0,
      "source": 0
    },
    {
      "sampler": 0,
      "source": 1
    },
    {
      "sampler": 0,
      "source": 2
    },
    {
      "sampler": 0,
      "source": 3
    },
    {
      "sampler": 0,
      "source": 4
    },
    {
      "sampler": 0,
      "source": 5
    }
  ]
}

